<svg width="13" height="13" viewBox="0 0 13 13" fill="none" xmlns="http://www.w3.org/2000/svg">
<path fill-rule="evenodd" clip-rule="evenodd" d="M6.63878 2.47363H3.89748C3.495 2.47363 3.16281 2.47362 2.89222 2.49573C2.61117 2.51869 2.35281 2.56797 2.11015 2.69162C1.73382 2.88337 1.42786 3.18933 1.23612 3.56565C1.11247 3.80832 1.06319 4.06667 1.04022 4.34772C1.01812 4.61832 1.01812 4.95049 1.01813 5.35298V7.59428C1.01812 7.99676 1.01812 8.32895 1.04022 8.59955C1.06319 8.88059 1.11247 9.13895 1.23612 9.38161C1.42786 9.75794 1.73382 10.0639 2.11015 10.2556C2.35281 10.3793 2.61117 10.4286 2.89222 10.4515C3.16281 10.4736 3.49499 10.4736 3.89748 10.4736H6.63877C7.04125 10.4736 7.37344 10.4736 7.64404 10.4515C7.92509 10.4286 8.18344 10.3793 8.42611 10.2556C8.80243 10.0639 9.10839 9.75794 9.30014 9.38161C9.42379 9.13895 9.47307 8.88059 9.49603 8.59955C9.51654 8.34856 9.51802 8.0446 9.51812 7.6807L10.4949 8.65747C10.5905 8.75308 10.6844 8.84706 10.7668 8.916C10.8402 8.97751 10.995 9.10087 11.2093 9.11773C11.4486 9.13657 11.6825 9.03969 11.8384 8.85713C11.9781 8.69366 12.0002 8.49703 12.0087 8.40159C12.0182 8.2946 12.0181 8.16173 12.0181 8.02655V4.92067C12.0181 4.78548 12.0182 4.65259 12.0087 4.54561C12.0002 4.45017 11.9781 4.25354 11.8384 4.09007C11.6825 3.90751 11.4486 3.81063 11.2093 3.82946C10.995 3.84633 10.8402 3.96969 10.7668 4.03119C10.6844 4.10013 10.5905 4.1941 10.4949 4.2897L9.51812 5.2665C9.51802 4.90263 9.51654 4.59869 9.49603 4.34772C9.47307 4.06667 9.42379 3.80832 9.30014 3.56565C9.10839 3.18933 8.80243 2.88337 8.42611 2.69162C8.18344 2.56798 7.92509 2.51869 7.64404 2.49573C7.37345 2.47362 7.04126 2.47363 6.63878 2.47363Z" fill="white"/>
</svg>
